<?xml version="1.0" encoding="UTF-8" standalone="no"?>
<svg width="154" height="154" xmlns="http://www.w3.org/2000/svg" xmlns:xlink="http://www.w3.org/1999/xlink">
  <defs>
    <path id="a" d="M0 .366V54.93h96V.366z"/>
  </defs>
  <g fill="none" fill-rule="evenodd">
    <path stroke="#D0DAE5" d="M.5.5h153v153H.5z"/>
    <g transform="translate(29 71.966)">
      <mask id="b" fill="#fff">
        <use xlink:href="#a"/>
      </mask>
      <path d="M51.036 1.087c-1.67-.961-4.402-.961-6.072 0L1.247 26.25c-1.67.961-1.66 2.519.02 3.462l43.679 24.51c1.68.942 4.429.942 6.11 0l43.679-24.51c1.68-.943 1.688-2.5.019-3.462L51.036 1.086z" fill="#FF8F52" fill-rule="nonzero" opacity=".2" mask="url(#b)"/>
    </g>
    <path stroke="#33475C" stroke-width="3.75" stroke-linecap="round" stroke-linejoin="round" d="M116.887 94.114l-39.886 22.819-39.888-22.82L77 71.296z"/>
    <path d="M116.887 84.84l-39.886 22.94-39.888-22.94L77 61.9l39.887 22.94zm-79.774 0v9.153L77 116.933v-9.154L37.113 84.84z" stroke="#33475C" stroke-width="3.75" stroke-linecap="round" stroke-linejoin="round"/>
    <path d="M116.887 84.766v9.174l-39.886 22.993v-9.175l39.886-22.992zm0-4.572l-39.886 22.992-39.888-22.992L77 57.2l39.887 22.993z" stroke="#33475C" stroke-width="3.75" stroke-linecap="round" stroke-linejoin="round"/>
    <path d="M116.887 80.691v4.453l-39.886 22.393v-4.453l39.886-22.393zm-79.774 0v4.453L77 107.537v-4.453L37.113 80.69z" stroke="#33475C" stroke-width="3.75" stroke-linecap="round" stroke-linejoin="round"/>
    <path stroke="#33475C" stroke-width="3.75" stroke-linecap="round" stroke-linejoin="round" d="M107.323 74.651L66.859 97.584v14.309l4.156 2.355.72-.408-.72-.408V99.94l39.819-22.568.645.365v-.73z"/>
    <path d="M87.514 97.419l-40.8-23.147-4.193 2.379v.713l.629-.356 40.171 22.79v13.626l-.726.413.726.411.726-.412 3.467-1.967V97.42zm17.198-57.116l-5.84 1.588 1.35 36.374 7.2 2.48-2.71-40.442zm2.71 40.442l-7.2-2.48-7.202 10.652 14.403-8.172zM66.652 31.027L93.41 45.399l-.39 43.518L63.061 71.92l3.589-40.894z" stroke="#33475C" stroke-width="3.75" stroke-linecap="round" stroke-linejoin="round"/>
    <g stroke-linecap="round" stroke-linejoin="round" stroke="#33475C" stroke-width="3.75">
      <path d="M65.851 31.063l9.254-1.353v6.503l-9.254-5.15zm9.254-1.352l2.588-2.565.048 10.535-2.636-1.468v-6.502z"/>
      <path d="M77.693 27.146l.048 10.535 14.373 7.998 5.361-3.567 5.731-1.616z"/>
    </g>
    <path d="M97.315 42.059l-5.344 3.533-.382 43.824 7.045-10.728-1.319-36.63zM85.389 72.89c-.908.61-2.094.571-3.245-.109l-.181-.115c-.644-.402-1.243-.988-1.746-1.705a8.7 8.7 0 0 1-1.307-2.76c-.306-.954-.393-1.932-.248-2.791l.049-.258c.143-.833.462-1.543.925-2.063a2.857 2.857 0 0 1 1.874-1c.709-.103 1.486.098 2.23.576l.07.046c.682.425 1.32 1.041 1.858 1.794a8.56 8.56 0 0 1 1.23 2.651c.251.949.34 1.902.255 2.781a6.78 6.78 0 0 1-.075.513c-.232 1.17-.837 2.045-1.69 2.44zm5.258-5.286a16.298 16.298 0 0 0-2.238-5.213c-.773-1.193-1.684-2.228-2.678-3.043l.83-4.47c1.144.153 2.049-.641 2.28-2.003.356-1.857-.624-4.183-2.188-5.196-1.565-1.012-3.122-.33-3.48 1.528l-.008.048c-.269 1.338.182 2.997 1.137 4.18l-.83 4.474c-.918-.433-1.843-.668-2.734-.693-1.36-2.519-5.84-10.79-8.45-15.62a3.5 3.5 0 0 0 .307-.915c.387-2.08-.717-4.672-2.467-5.79-1.748-1.117-3.48-.337-3.868 1.743-.386 2.079.717 4.67 2.465 5.788.574.363 1.171.531 1.726.487l.55 1.019 7.646 13.588a4.922 4.922 0 0 0-1.59.99c-.985.87-1.67 2.182-1.975 3.778l-.064.342c-.212 1.105-.259 2.309-.137 3.554.109 1.056.35 2.128.712 3.175l-3.692 1.667c-1.163-1.36-2.71-1.484-3.454-.275-.745 1.21-.405 3.293.759 4.653 1.163 1.36 2.71 1.484 3.454.275.298-.483.433-1.134.385-1.849l3.806-1.72c.365.62.773 1.214 1.22 1.776.925 1.182 1.978 2.159 3.095 2.87l.216.138c2.687 1.72 5.492 1.673 7.421-.126.994-.895 1.685-2.233 1.99-3.856l.016-.084c.31-1.598.253-3.4-.162-5.22z" stroke="#33475C" stroke-width="3.75" stroke-linecap="round" stroke-linejoin="round"/>
    <path d="M72.401 39.752s-3.865 26.31 5.294 24.767c7.563-1.276 7.417-17.439 7.417-17.439" stroke="#33475C" stroke-width="3.75" stroke-linecap="round" stroke-linejoin="round"/>
    <path d="M72.401 39.752s-3.865 26.31 5.294 24.767c7.563-1.276 7.417-17.439 7.417-17.439" stroke="#33475C" stroke-width="3.75" stroke-linecap="round" stroke-linejoin="round"/>
    <path d="M72.158 39.515s-8.221 16.096-1.78 20.06c8.713 5.362 14.151-12.976 14.151-12.976l-12.371-7.084zm3.404-7.116l-5.148.73-4.23-2.282 9.378-1.328v2.88zm2.623-2.519l22.165 11.24 3.692-1.008L78.185 27v2.88z" stroke="#33475C" stroke-width="3.75" stroke-linecap="round" stroke-linejoin="round"/>
    <path d="M75.747 32.477l2.605-2.555V27l-2.605 2.555v2.922zM64.439 90.758l7.917-4.607-15.834-9.213-7.916 4.607 15.833 9.213z" stroke="#33475C" stroke-width="3.75" stroke-linecap="round" stroke-linejoin="round"/>
    <path stroke="#33475C" stroke-width="3.75" stroke-linecap="round" stroke-linejoin="round" d="M64.831 90.758l8.113-4.698-16.226-9.396-8.112 4.699zM52.662 65.255l16.226 9.444 4.056 11.361-16.226-9.444z"/>
    <path stroke="#33475C" stroke-width="3.75" stroke-linecap="round" stroke-linejoin="round" d="M52.662 65.255l-4.056 15.646 16.225 9.186 4.056-15.645z"/>
    <path d="M63.579 84.525c-.375.2-.834.144-1.258-.155l-.067-.05a2.373 2.373 0 0 1-.618-.71 3.291 3.291 0 0 1-.411-1.096 2.245 2.245 0 0 1 .002-1.071l.027-.096c.085-.311.234-.57.432-.752.205-.197.478-.31.763-.315.28-.014.575.09.847.298l.025.02c.25.185.477.442.66.747.188.326.318.682.384 1.052.065.353.066.714.003 1.067-.014.064-.03.129-.048.192-.13.437-.396.749-.742.87zm2.228-1.826a6.14 6.14 0 0 0-.687-2.061 5.05 5.05 0 0 0-.934-1.252l.479-1.672c.44.099.819-.172.956-.682.204-.693-.095-1.612-.668-2.053-.572-.44-1.202-.234-1.406.46l-.005.017c-.151.5-.034 1.147.296 1.63l-.48 1.673a2.72 2.72 0 0 0-1.038-.36c-.44-1.006-1.892-4.31-2.736-6.238.063-.099.114-.212.15-.337.224-.778-.114-1.803-.755-2.29-.64-.486-1.34-.25-1.564.527-.223.778.114 1.803.755 2.289.21.158.436.243.654.246l.178.407 2.495 5.437a1.937 1.937 0 0 0-.653.32c-.413.297-.726.772-.9 1.369l-.036.128a4.665 4.665 0 0 0-.178 1.347c.005.405.06.822.165 1.233l-1.493.505c-.405-.56-1.001-.66-1.333-.227-.331.434-.272 1.239.132 1.797.404.558 1 .66 1.333.226.132-.174.208-.416.214-.69l1.54-.52c.122.252.26.492.412.718.317.482.693.89 1.102 1.2l.079.06c.984.749 2.076.83 2.888.213.418-.306.733-.79.91-1.397l.009-.032c.175-.597.217-1.284.119-1.991zm-8.57-5.056l-4.543-2.598 4.543 2.598zm.024 1.55l-5.09-2.91 5.09 2.91zm-1.582.01l-3.693-2.111 3.693 2.11zm28.26 12.76l-.068.054a2.27 2.27 0 0 1-.865.426 2.988 2.988 0 0 1-1.178.075 2.134 2.134 0 0 1-1.035-.358l-.086-.062c-.278-.195-.485-.03-.604-.302a1.392 1.392 0 0 1-.086-.923c.067-.304.252-.585.532-.807l.026-.021c.268-.215.58-.37.913-.457a2.939 2.939 0 0 1 1.129-.061c.375.053.73.174 1.032.353.063.039.116.073.173.115.386.286.61.674.628 1.083.086.468-.1.531-.511.885zm2.173-2.112a3.097 3.097 0 0 0-.87-.956l-.027-.019c-.527-.388-1.18-1.125-1.893-1.256-.724-.128-1.428-.366-2.14-.205-.54.116-1.095 1.032-1.532 1.3l-.64-1.386c.222-.437-.771-.618-1.225-.934a1.749 1.749 0 0 0-.799-.31v-.019l-1.81-.462v1.662c.009.298.166.594.47.818l.017.01c.44.33 1.1.42 1.663.229l1.48 1.07c-.288.3-.524-.6-.663-.242-1.1.136-4.702.66-6.81.922-.078-.101-.504.781-.614.7-.458-.332-.755-.24-1.32-.117l-.06-.275-1.19-.116v1.667h.002c.007.339.184.675.532.927.688.497 1.777.477 2.431-.047.211-.17.356-.38.423-.607l.003.002c1.91-.237 5.039-.617 6.432-.788.01.225.042.448.115.666.168.541.538 1.034 1.065 1.42l.113.082c.382.276.805.492 1.254.64.393.129.812.207 1.24.233l.037 1.112-.715-.062v1.633h.003a.802.802 0 0 0 .134.436c.324.5 1.119.704 1.776.457.462-.174.726-.526.732-.893h.005V95.51l-.764.082-.04-1.19c.276-.045.548-.112.813-.2a4.623 4.623 0 0 0 1.477-.78l.082-.066c.7-.558 1.094-1.281 1.153-2.03l.009-.011v-.096-.148l.004-1.485-.353.264z" stroke="#33475C" stroke-width="3.75" stroke-linecap="round" stroke-linejoin="round"/>
    <path d="M83.852 91.378l-.07.057a2.32 2.32 0 0 1-.893.45c-.397.11-.811.137-1.218.08a2.185 2.185 0 0 1-1.07-.378l-.089-.065a1.82 1.82 0 0 1-.624-.754 1.5 1.5 0 0 1-.088-.973c.069-.321.26-.618.549-.853l.027-.022c.277-.227.599-.391.944-.483.38-.098.777-.12 1.166-.065.388.057.754.185 1.067.373.065.042.12.078.178.122.399.302.63.712.65 1.144.088.494-.104.994-.529 1.368v-.001zm2.475-2.153c-.181-.58-.573-1.106-1.128-1.52l-.028-.02a4.703 4.703 0 0 0-1.956-.837 5.651 5.651 0 0 0-2.265.052 4.835 4.835 0 0 0-1.53.616l-1.529-1.13c.23-.463.071-.987-.399-1.322-.632-.474-1.64-.459-2.25.033-.61.494-.592 1.277.042 1.751.005.005.01.008.016.012.455.347 1.137.443 1.718.24l1.53 1.131c-.288.301-.515.657-.667 1.047-1.136.144-4.871.623-7.05.9a1.462 1.462 0 0 0-.293-.29c-.712-.526-1.837-.505-2.513.049-.677.553-.648 1.428.063 1.954.71.525 1.835.505 2.512-.049.22-.181.373-.407.44-.652 1.973-.25 5.207-.652 6.646-.832.008.24.042.482.118.716.174.572.557 1.092 1.101 1.5l.118.086c.394.292.831.52 1.295.676a5 5 0 0 0 1.281.246l.062 1.866c-.68.26-.957.9-.621 1.428.335.528 1.157.744 1.835.483.678-.26.957-.9.622-1.428a1.27 1.27 0 0 0-.627-.485l-.064-1.924c.286-.049.567-.12.84-.213a4.725 4.725 0 0 0 1.527-.824l.085-.069c1.04-.848 1.445-2.055 1.07-3.191z" stroke="#33475C" stroke-width="3.75" stroke-linecap="round" stroke-linejoin="round"/>
    <path d="M83.854 92.528l-.07.055a2.361 2.361 0 0 1-.893.434c-.397.105-.811.13-1.218.076a2.229 2.229 0 0 1-1.07-.364l-.09-.063c-.286-.199-.5-.03-.623-.308a1.396 1.396 0 0 1-.089-.938c.07-.31.26-.595.55-.82l.027-.023c.277-.218.599-.376.944-.464.38-.095.777-.116 1.166-.063a2.95 2.95 0 0 1 1.067.36c.065.039.12.074.178.116.399.291.631.687.65 1.103.088.475-.104.54-.529.899zM86.1 90.38a3.169 3.169 0 0 0-.898-.972l-.029-.02c-.545-.394-1.22-1.144-1.956-1.277-.749-.13-1.476-.372-2.213-.209-.558.119-1.13 1.05-1.582 1.323l-.661-1.41c.229-.444-.798-.628-1.267-.95a1.824 1.824 0 0 0-.825-.316v-.018l-1.872-.47v1.69h.001c.009.303.171.604.487.832l.016.01c.455.335 1.137.427 1.718.233l1.531 1.088c-.298.305-.542-.61-.685-.246-1.138.139-4.86.672-7.04.938-.08-.103-.52.795-.633.712-.473-.337-.78-.243-1.366-.119l-.061-.28-1.23-.117v1.695h.002c.008.344.191.686.55.942.712.506 1.837.486 2.513-.047.218-.173.368-.386.437-.618l.004.003c1.972-.241 5.207-.628 6.646-.802h.001c.01.229.043.456.118.677.174.55.556 1.053 1.1 1.445l.118.083c.395.28.832.5 1.295.65.407.132.84.212 1.282.238l.039 1.131-.739-.063v1.661h.003c.002.149.043.3.138.443.335.509 1.157.717 1.835.466.478-.178.75-.535.758-.909h.005v-1.661l-.79.084-.042-1.21c.286-.047.567-.115.84-.205a4.804 4.804 0 0 0 1.528-.793l.084-.067c.723-.568 1.13-1.303 1.191-2.065l.01-.011v-.097-.15l.004-1.511-.365.268z" stroke="#33475C" stroke-width="3.75" stroke-linecap="round" stroke-linejoin="round"/>
    <path d="M83.852 91.378l-.07.057a2.32 2.32 0 0 1-.893.45c-.397.11-.811.137-1.218.08a2.185 2.185 0 0 1-1.07-.378l-.089-.065a1.82 1.82 0 0 1-.624-.754 1.5 1.5 0 0 1-.088-.973c.069-.321.26-.618.549-.853l.027-.022c.277-.227.599-.391.944-.483.38-.098.777-.12 1.166-.065.388.057.754.185 1.067.373.065.042.12.078.178.122.399.302.63.712.65 1.144.088.494-.104.994-.529 1.368v-.001zm2.475-2.153c-.181-.58-.573-1.106-1.128-1.52l-.028-.02a4.703 4.703 0 0 0-1.956-.837 5.651 5.651 0 0 0-2.265.052 4.835 4.835 0 0 0-1.53.616l-1.529-1.13c.23-.463.071-.987-.399-1.322-.632-.474-1.64-.459-2.25.033-.61.494-.592 1.277.042 1.751.005.005.01.008.016.012.455.347 1.137.443 1.718.24l1.53 1.131c-.288.301-.515.657-.667 1.047-1.136.144-4.871.623-7.05.9a1.462 1.462 0 0 0-.293-.29c-.712-.526-1.837-.505-2.513.049-.677.553-.648 1.428.063 1.954.71.525 1.835.505 2.512-.049.22-.181.373-.407.44-.652 1.973-.25 5.207-.652 6.646-.832.008.24.042.482.118.716.174.572.557 1.092 1.101 1.5l.118.086c.394.292.831.52 1.295.676a5 5 0 0 0 1.281.246l.062 1.866c-.68.26-.957.9-.621 1.428.335.528 1.157.744 1.835.483.678-.26.957-.9.622-1.428a1.27 1.27 0 0 0-.627-.485l-.064-1.924c.286-.049.567-.12.84-.213a4.725 4.725 0 0 0 1.527-.824l.085-.069c1.04-.848 1.445-2.055 1.07-3.191z" stroke="#33475C" stroke-width="3.75" stroke-linecap="round" stroke-linejoin="round"/>
    <path d="M83.854 92.528l-.07.055a2.361 2.361 0 0 1-.893.434c-.397.105-.811.13-1.218.076a2.229 2.229 0 0 1-1.07-.364l-.09-.063c-.286-.199-.5-.03-.623-.308a1.396 1.396 0 0 1-.089-.938c.07-.31.26-.595.55-.82l.027-.023c.277-.218.599-.376.944-.464.38-.095.777-.116 1.166-.063a2.95 2.95 0 0 1 1.067.36c.065.039.12.074.178.116.399.291.631.687.65 1.103.088.475-.104.54-.529.899zM86.1 90.38a3.169 3.169 0 0 0-.898-.972l-.029-.02c-.545-.394-1.22-1.144-1.956-1.277-.749-.13-1.476-.372-2.213-.209-.558.119-1.13 1.05-1.582 1.323l-.661-1.41c.229-.444-.798-.628-1.267-.95a1.824 1.824 0 0 0-.825-.316v-.018l-1.872-.47v1.69h.001c.009.303.171.604.487.832l.016.01c.455.335 1.137.427 1.718.233l1.531 1.088c-.298.305-.542-.61-.685-.246-1.138.139-4.86.672-7.04.938-.08-.103-.52.795-.633.712-.473-.337-.78-.243-1.366-.119l-.061-.28-1.23-.117v1.695h.002c.008.344.191.686.55.942.712.506 1.837.486 2.513-.047.218-.173.368-.386.437-.618l.004.003c1.972-.241 5.207-.628 6.646-.802h.001c.01.229.043.456.118.677.174.55.556 1.053 1.1 1.445l.118.083c.395.28.832.5 1.295.65.407.132.84.212 1.282.238l.039 1.131-.739-.063v1.661h.003c.002.149.043.3.138.443.335.509 1.157.717 1.835.466.478-.178.75-.535.758-.909h.005v-1.661l-.79.084-.042-1.21c.286-.047.567-.115.84-.205a4.804 4.804 0 0 0 1.528-.793l.084-.067c.723-.568 1.13-1.303 1.191-2.065l.01-.011v-.097-.15l.004-1.511-.365.268z" stroke="#33475C" stroke-width="3.75" stroke-linecap="round" stroke-linejoin="round"/>
    <path d="M83.852 91.378l-.07.057a2.32 2.32 0 0 1-.893.45c-.397.11-.811.137-1.218.08a2.185 2.185 0 0 1-1.07-.378l-.089-.065a1.82 1.82 0 0 1-.624-.754 1.5 1.5 0 0 1-.088-.973c.069-.321.26-.618.549-.853l.027-.022c.277-.227.599-.391.944-.483.38-.098.777-.12 1.166-.065.388.057.754.185 1.067.373.065.042.12.078.178.122.399.302.63.712.65 1.144.088.494-.104.994-.529 1.368v-.001zm2.475-2.153c-.181-.58-.573-1.106-1.128-1.52l-.028-.02a4.703 4.703 0 0 0-1.956-.837 5.651 5.651 0 0 0-2.265.052 4.835 4.835 0 0 0-1.53.616l-1.529-1.13c.23-.463.071-.987-.399-1.322-.632-.474-1.64-.459-2.25.033-.61.494-.592 1.277.042 1.751.005.005.01.008.016.012.455.347 1.137.443 1.718.24l1.53 1.131c-.288.301-.515.657-.667 1.047-1.136.144-4.871.623-7.05.9a1.462 1.462 0 0 0-.293-.29c-.712-.526-1.837-.505-2.513.049-.677.553-.648 1.428.063 1.954.71.525 1.835.505 2.512-.049.22-.181.373-.407.44-.652 1.973-.25 5.207-.652 6.646-.832.008.24.042.482.118.716.174.572.557 1.092 1.101 1.5l.118.086c.394.292.831.52 1.295.676a5 5 0 0 0 1.281.246l.062 1.866c-.68.26-.957.9-.621 1.428.335.528 1.157.744 1.835.483.678-.26.957-.9.622-1.428a1.27 1.27 0 0 0-.627-.485l-.064-1.924c.286-.049.567-.12.84-.213a4.725 4.725 0 0 0 1.527-.824l.085-.069c1.04-.848 1.445-2.055 1.07-3.191z" stroke="#33475C" stroke-width="3.75" stroke-linecap="round" stroke-linejoin="round"/>
    <path stroke="#33475C" stroke-width=".75" stroke-linecap="round" stroke-linejoin="round" d="M116.887 94.114l-39.886 22.819-39.888-22.82L77 71.296z"/>
    <path stroke="#33475C" stroke-width=".75" stroke-linecap="round" stroke-linejoin="round" d="M116.887 84.718l-39.886 22.819-39.888-22.819L77 61.9z"/>
    <path fill="#EAF0F6" fill-rule="nonzero" d="M37.113 85.39v8.996L77 116.933v-8.997z"/>
    <path stroke="#33475C" stroke-width=".75" stroke-linecap="round" stroke-linejoin="round" d="M37.113 85.39v8.996L77 116.933v-8.997z"/>
    <path fill="#CBD6E3" fill-rule="nonzero" d="M116.887 85.39v8.996L77 116.933v-8.997z"/>
    <path stroke="#33475C" stroke-width=".75" stroke-linecap="round" stroke-linejoin="round" d="M116.887 85.39v8.996L77 116.933v-8.997z"/>
    <path fill="#FFF" fill-rule="nonzero" d="M116.887 80.02L77.001 102.84 37.113 80.02 77 57.201z"/>
    <path stroke="#33475C" stroke-width=".75" stroke-linecap="round" stroke-linejoin="round" d="M116.887 80.02L77.001 102.84 37.113 80.02 77 57.201z"/>
    <path fill="#CBD6E3" fill-rule="nonzero" d="M116.887 80.691v4.453L77 107.537v-4.453z"/>
    <path stroke="#33475C" stroke-width=".75" stroke-linecap="round" stroke-linejoin="round" d="M116.887 80.691v4.453L77 107.537v-4.453z"/>
    <path fill="#EAF0F6" fill-rule="nonzero" d="M37.113 80.691v4.453L77 107.537v-4.453z"/>
    <path stroke="#33475C" stroke-width=".75" stroke-linecap="round" stroke-linejoin="round" d="M37.113 80.691v4.453L77 107.537v-4.453z"/>
    <path fill="#FFAB7D" fill-rule="nonzero" d="M107.323 74.651L66.859 97.584v14.309l4.156 2.355.72-.408-.72-.408V99.94l39.819-22.568.645.365v-.73z"/>
    <path stroke="#33475C" stroke-width=".75" stroke-linecap="round" stroke-linejoin="round" d="M107.323 74.651L66.859 97.584v14.309l4.156 2.355.72-.408-.72-.408V99.94l39.819-22.568.645.365v-.73z"/>
    <path fill="#FFAB7D" fill-rule="nonzero" d="M87.14 97.579L46.68 74.65l-4.158 2.356v.707l.624-.353 39.838 22.574v13.497l-.72.408.72.408.72-.408 3.438-1.948z"/>
    <path stroke="#33475C" stroke-width=".75" stroke-linecap="round" stroke-linejoin="round" d="M87.14 97.579L46.68 74.65l-4.158 2.356v.707l.624-.353 39.838 22.574v13.497l-.72.408.72.408.72-.408 3.438-1.948z"/>
    <path fill="#FF8F52" fill-rule="nonzero" d="M105.312 40.423l-6.002 1.581 1.386 36.217 7.403 2.47z"/>
    <path stroke="#33475C" stroke-width=".75" stroke-linecap="round" stroke-linejoin="round" d="M105.312 40.423l-6.002 1.581 1.386 36.217 7.403 2.47z"/>
    <path fill="#FFAB7D" fill-rule="nonzero" d="M108.099 81.179l-7.437-2.501-7.437 10.738z"/>
    <path stroke="#33475C" stroke-width=".75" stroke-linecap="round" stroke-linejoin="round" d="M108.099 81.179l-7.437-2.501-7.437 10.738z"/>
    <path fill="#FFAB7D" fill-rule="nonzero" d="M65.645 31.027l26.228 14.496-.383 43.893-29.363-17.142z"/>
    <path stroke="#33475C" stroke-width=".75" stroke-linecap="round" stroke-linejoin="round" d="M65.645 31.027l26.228 14.496-.383 43.893-29.363-17.142z"/>
    <path fill="#E8824A" fill-rule="nonzero" d="M66.183 31.08l9.465-1.395v6.711z"/>
    <path stroke="#33475C" stroke-width=".75" stroke-linecap="round" stroke-linejoin="round" d="M66.183 31.08l9.465-1.395v6.711z"/>
    <path fill="#E8824A" fill-rule="nonzero" d="M75.648 29.614L78.303 27l.05 10.738-2.705-1.495z"/>
    <path stroke="#33475C" stroke-width=".75" stroke-linecap="round" stroke-linejoin="round" d="M75.648 29.614L78.303 27l.05 10.738-2.705-1.495z"/>
    <path fill="#FFAB7D" fill-rule="nonzero" d="M78.352 27l.047 10.681 14.092 8.11 5.256-3.617 5.62-1.637z"/>
    <path stroke="#33475C" stroke-width=".75" stroke-linecap="round" stroke-linejoin="round" d="M78.352 27l.047 10.681 14.092 8.11 5.256-3.617 5.62-1.637z"/>
    <path fill="#E8824A" fill-rule="nonzero" d="M99.27 42.436l-5.641 3.505-.404 43.475 7.437-10.643z"/>
    <path stroke="#33475C" stroke-width=".75" stroke-linecap="round" stroke-linejoin="round" d="M99.27 42.436l-5.641 3.505-.404 43.475 7.437-10.643z"/>
    <path d="M85.014 72.766c-.89.609-2.053.57-3.181-.108l-.178-.116c-.631-.4-1.219-.984-1.712-1.698a8.736 8.736 0 0 1-1.281-2.752c-.301-.951-.386-1.926-.243-2.782l.047-.257c.141-.83.453-1.538.907-2.056.49-.575 1.123-.918 1.838-.998.694-.102 1.457.1 2.185.576l.07.045c.668.424 1.293 1.038 1.822 1.789a8.598 8.598 0 0 1 1.205 2.642c.247.945.333 1.895.25 2.772-.02.182-.041.339-.073.51-.227 1.167-.821 2.04-1.656 2.433m5.155-5.268a16.387 16.387 0 0 0-2.195-5.197c-.757-1.19-1.65-2.22-2.625-3.033l.813-4.456c1.122.153 2.01-.639 2.236-1.996.35-1.85-.61-4.17-2.144-5.18-1.535-1.008-3.062-.327-3.412 1.524l-.008.047c-.264 1.334.178 2.988 1.114 4.168l-.814 4.459c-.9-.432-1.806-.666-2.68-.69-1.334-2.511-5.726-10.757-8.285-15.57.141-.288.243-.595.3-.913.38-2.073-.702-4.656-2.418-5.77-1.714-1.114-3.412-.337-3.792 1.737-.38 2.072.703 4.654 2.417 5.769.562.362 1.148.53 1.691.485l.54 1.016 7.496 13.543a4.815 4.815 0 0 0-1.558.987c-.966.868-1.639 2.176-1.937 3.767l-.062.34c-.208 1.102-.254 2.302-.134 3.543.106 1.052.342 2.121.697 3.164l-3.62 1.662c-1.14-1.356-2.656-1.479-3.386-.274-.73 1.206-.397 3.282.744 4.638 1.14 1.356 2.657 1.479 3.387.274.292-.482.424-1.13.377-1.843l3.732-1.714c.357.618.757 1.21 1.196 1.77.907 1.178 1.94 2.152 3.034 2.86l.212.138c2.635 1.715 5.385 1.668 7.277-.125.974-.892 1.651-2.226 1.951-3.844l.015-.084c.303-1.592.248-3.388-.16-5.202" fill="#FF8F52" fill-rule="nonzero"/>
    <path d="M72.401 39.752s-3.865 26.31 5.294 24.767c7.563-1.276 7.417-17.439 7.417-17.439" stroke="#E8824A" stroke-width="3.75" opacity=".5" stroke-linecap="round" stroke-linejoin="round"/>
    <path d="M71.852 39.752s-8.362 16.428-1.81 20.474c8.862 5.472 14.395-13.243 14.395-13.243" stroke="#FFF" stroke-width="3.75" stroke-linecap="round" stroke-linejoin="round"/>
    <path fill="#FF8F52" fill-rule="nonzero" d="M75.648 32.898l-5.195.813-4.27-2.544 9.465-1.482z"/>
    <path stroke="#33475C" stroke-width=".75" stroke-linecap="round" stroke-linejoin="round" d="M75.648 32.898l-5.195.813-4.27-2.544 9.465-1.482v3.213"/>
    <path fill="#FF8F52" fill-rule="nonzero" d="M78.352 30.012l21.442 11.753 3.572-1.054L78.352 27z"/>
    <path stroke="#33475C" stroke-width=".75" stroke-linecap="round" stroke-linejoin="round" d="M78.352 30.012l21.442 11.753 3.572-1.054L78.352 27z"/>
    <path fill="#FF8F52" fill-rule="nonzero" d="M75.648 32.37l2.704-2.505V27l-2.704 2.505z"/>
    <path stroke="#33475C" stroke-width=".75" stroke-linecap="round" stroke-linejoin="round" d="M75.648 32.37l2.704-2.505V27l-2.704 2.505z"/>
    <path fill="#7B97B7" fill-rule="nonzero" opacity=".25" d="M64.831 90.758l8.113-4.698-16.226-9.396-8.112 4.699z"/>
    <path fill="#FFAB7D" fill-rule="nonzero" d="M52.662 65.255l16.226 9.444 4.056 11.361-16.226-9.444z"/>
    <path stroke="#33475C" stroke-width=".75" stroke-linecap="round" stroke-linejoin="round" d="M52.662 65.255l16.226 9.444 4.056 11.361-16.226-9.444z"/>
    <path fill="#F5F8FA" fill-rule="nonzero" d="M52.662 65.255l-4.056 15.646 16.225 9.186 4.056-15.645z"/>
    <path stroke="#33475C" stroke-width=".75" stroke-linecap="round" stroke-linejoin="round" d="M52.662 65.255l-4.056 15.646 16.225 9.186 4.056-15.645z"/>
    <path d="M63.11 85.296c-.393.21-.876.151-1.322-.163l-.07-.053a2.493 2.493 0 0 1-.65-.745 3.456 3.456 0 0 1-.432-1.152c-.09-.392-.09-.786.002-1.125l.029-.1c.09-.328.245-.6.454-.79.215-.208.502-.327.802-.332.294-.015.604.094.89.314l.027.02c.263.195.5.465.693.786.198.342.335.716.404 1.105.068.37.07.75.003 1.12a2.988 2.988 0 0 1-.05.202c-.138.46-.417.787-.78.913m2.343-1.918a6.448 6.448 0 0 0-.723-2.166 5.305 5.305 0 0 0-.982-1.315l.504-1.757c.462.104.86-.18 1.005-.716.214-.728-.1-1.694-.702-2.157-.602-.462-1.263-.246-1.478.483l-.005.018c-.16.526-.036 1.205.31 1.714l-.504 1.756a2.86 2.86 0 0 0-1.09-.377l-2.877-6.554a1.37 1.37 0 0 0 .159-.355c.235-.817-.12-1.893-.794-2.404-.674-.511-1.41-.263-1.645.553-.235.817.12 1.893.794 2.404.221.166.458.256.687.259l.187.427 2.623 5.713a2.037 2.037 0 0 0-.686.336c-.434.311-.763.81-.946 1.438l-.039.134c-.13.46-.194.937-.186 1.416.005.425.064.863.173 1.294l-1.569.53c-.426-.586-1.053-.692-1.401-.237-.348.456-.287 1.301.138 1.887.425.587 1.052.693 1.401.238.14-.183.22-.437.226-.724l1.618-.548c.129.265.274.518.433.755.334.506.729.936 1.158 1.26l.084.064c1.034.786 2.182.871 3.036.223.44-.32.77-.83.955-1.467l.01-.034c.185-.627.229-1.349.125-2.091" fill="#FF8F52" fill-rule="nonzero"/>
    <path d="M57.394 78.007l-4.732-2.685" fill="#FFF" fill-rule="nonzero"/>
    <path d="M57.394 78.007l-4.732-2.685" stroke="#FF8F52" stroke-width="1.5" stroke-linecap="round" stroke-linejoin="round"/>
    <path d="M57.394 79.349l-5.408-2.685" fill="#FFF" fill-rule="nonzero"/>
    <path d="M57.394 79.349l-5.408-2.685" stroke="#FFAB7D" stroke-width=".75" stroke-linecap="round" stroke-linejoin="round"/>
    <path d="M56.042 79.349l-4.056-2.013" fill="#FFF" fill-rule="nonzero"/>
    <path d="M56.042 79.349l-4.056-2.013" stroke="#FFAB7D" stroke-width=".75" stroke-linecap="round" stroke-linejoin="round"/>
    <path d="M83.854 92.528l-.07.055a2.361 2.361 0 0 1-.893.434c-.397.105-.811.13-1.218.076a2.229 2.229 0 0 1-1.07-.364l-.09-.063c-.286-.199-.5-.03-.623-.308a1.396 1.396 0 0 1-.089-.938c.07-.31.26-.595.55-.82l.027-.023c.277-.218.599-.376.944-.464.38-.095.777-.116 1.166-.063a2.95 2.95 0 0 1 1.067.36c.065.039.12.074.178.116.399.291.631.687.65 1.103.088.475-.104.54-.529.899zM86.1 90.38a3.169 3.169 0 0 0-.898-.972l-.029-.02c-.545-.394-1.22-1.144-1.956-1.277-.749-.13-1.476-.372-2.213-.209-.558.119-1.13 1.05-1.582 1.323l-.661-1.41c.229-.444-.798-.628-1.267-.95a1.824 1.824 0 0 0-.825-.316v-.018l-1.872-.47v1.69h.001c.009.303.171.604.487.832l.016.01c.455.335 1.137.427 1.718.233l1.531 1.088c-.298.305-.542-.61-.685-.246-1.138.139-4.86.672-7.04.938-.08-.103-.52.795-.633.712-.473-.337-.78-.243-1.366-.119l-.061-.28-1.23-.117v1.695h.002c.008.344.191.686.55.942.712.506 1.837.486 2.513-.047.218-.173.368-.386.437-.618l.004.003c1.972-.241 5.207-.628 6.646-.802h.001c.01.229.043.456.118.677.174.55.556 1.053 1.1 1.445l.118.083c.395.28.832.5 1.295.65.407.132.84.212 1.282.238l.039 1.131-.739-.063v1.661h.003c.002.149.043.3.138.443.335.509 1.157.717 1.835.466.478-.178.75-.535.758-.909h.005v-1.661l-.79.084-.042-1.21c.286-.047.567-.115.84-.205a4.804 4.804 0 0 0 1.528-.793l.084-.067c.723-.568 1.13-1.303 1.191-2.065l.01-.011v-.097-.15l.004-1.511-.365.268z" stroke="#33475C" stroke-width="1.5" stroke-linecap="round" stroke-linejoin="round"/>
    <path d="M83.852 91.378l-.07.057a2.32 2.32 0 0 1-.893.45c-.397.11-.811.137-1.218.08a2.185 2.185 0 0 1-1.07-.378l-.089-.065a1.82 1.82 0 0 1-.624-.754 1.5 1.5 0 0 1-.088-.973c.069-.321.26-.618.549-.853l.027-.022c.277-.227.599-.391.944-.483.38-.098.777-.12 1.166-.065.388.057.754.185 1.067.373.065.042.12.078.178.122.399.302.63.712.65 1.144.088.494-.104.994-.529 1.368v-.001zm2.475-2.153c-.181-.58-.573-1.106-1.128-1.52l-.028-.02a4.703 4.703 0 0 0-1.956-.837 5.651 5.651 0 0 0-2.265.052 4.835 4.835 0 0 0-1.53.616l-1.529-1.13c.23-.463.071-.987-.399-1.322-.632-.474-1.64-.459-2.25.033-.61.494-.592 1.277.042 1.751.005.005.01.008.016.012.455.347 1.137.443 1.718.24l1.53 1.131c-.288.301-.515.657-.667 1.047-1.136.144-4.871.623-7.05.9a1.462 1.462 0 0 0-.293-.29c-.712-.526-1.837-.505-2.513.049-.677.553-.648 1.428.063 1.954.71.525 1.835.505 2.512-.049.22-.181.373-.407.44-.652 1.973-.25 5.207-.652 6.646-.832.008.24.042.482.118.716.174.572.557 1.092 1.101 1.5l.118.086c.394.292.831.52 1.295.676a5 5 0 0 0 1.281.246l.062 1.866c-.68.26-.957.9-.621 1.428.335.528 1.157.744 1.835.483.678-.26.957-.9.622-1.428a1.27 1.27 0 0 0-.627-.485l-.064-1.924c.286-.049.567-.12.84-.213a4.725 4.725 0 0 0 1.527-.824l.085-.069c1.04-.848 1.445-2.055 1.07-3.191z" stroke="#33475C" stroke-width="1.5" stroke-linecap="round" stroke-linejoin="round"/>
    <path d="M83.854 92.528l-.07.055a2.361 2.361 0 0 1-.893.434c-.397.105-.811.13-1.218.076a2.229 2.229 0 0 1-1.07-.364l-.09-.063c-.286-.199-.5-.03-.623-.308a1.396 1.396 0 0 1-.089-.938c.07-.31.26-.595.55-.82l.027-.023c.277-.218.599-.376.944-.464.38-.095.777-.116 1.166-.063a2.95 2.95 0 0 1 1.067.36c.065.039.12.074.178.116.399.291.631.687.65 1.103.088.475-.104.54-.529.899zM86.1 90.38a3.169 3.169 0 0 0-.898-.972l-.029-.02c-.545-.394-1.22-1.144-1.956-1.277-.749-.13-1.476-.372-2.213-.209-.558.119-1.13 1.05-1.582 1.323l-.661-1.41c.229-.444-.798-.628-1.267-.95a1.824 1.824 0 0 0-.825-.316v-.018l-1.872-.47v1.69h.001c.009.303.171.604.487.832l.016.01c.455.335 1.137.427 1.718.233l1.531 1.088c-.298.305-.542-.61-.685-.246-1.138.139-4.86.672-7.04.938-.08-.103-.52.795-.633.712-.473-.337-.78-.243-1.366-.119l-.061-.28-1.23-.117v1.695h.002c.008.344.191.686.55.942.712.506 1.837.486 2.513-.047.218-.173.368-.386.437-.618l.004.003c1.972-.241 5.207-.628 6.646-.802h.001c.01.229.043.456.118.677.174.55.556 1.053 1.1 1.445l.118.083c.395.28.832.5 1.295.65.407.132.84.212 1.282.238l.039 1.131-.739-.063v1.661h.003c.002.149.043.3.138.443.335.509 1.157.717 1.835.466.478-.178.75-.535.758-.909h.005v-1.661l-.79.084-.042-1.21c.286-.047.567-.115.84-.205a4.804 4.804 0 0 0 1.528-.793l.084-.067c.723-.568 1.13-1.303 1.191-2.065l.01-.011v-.097-.15l.004-1.511-.365.268z" fill="#FFC7AA" fill-rule="nonzero"/>
    <path d="M83.852 91.378l-.07.057a2.32 2.32 0 0 1-.893.45c-.397.11-.811.137-1.218.08a2.185 2.185 0 0 1-1.07-.378l-.089-.065a1.82 1.82 0 0 1-.624-.754 1.5 1.5 0 0 1-.088-.973c.069-.321.26-.618.549-.853l.027-.022c.277-.227.599-.391.944-.483.38-.098.777-.12 1.166-.065.388.057.754.185 1.067.373.065.042.12.078.178.122.399.302.63.712.65 1.144.088.494-.104.994-.529 1.368m2.475-2.154c-.181-.58-.573-1.106-1.128-1.52l-.028-.02a4.703 4.703 0 0 0-1.956-.837 5.651 5.651 0 0 0-2.265.052 4.835 4.835 0 0 0-1.53.616l-1.529-1.13c.23-.463.071-.987-.399-1.322-.632-.474-1.64-.459-2.25.033-.61.494-.592 1.277.042 1.751.005.005.01.008.016.012.455.347 1.137.443 1.718.24l1.53 1.131c-.288.301-.515.657-.667 1.047-1.136.144-4.871.623-7.05.9a1.462 1.462 0 0 0-.293-.29c-.712-.526-1.837-.505-2.513.049-.677.553-.648 1.428.063 1.954.71.525 1.835.505 2.512-.049.22-.181.373-.407.44-.652 1.973-.25 5.207-.652 6.646-.832.008.24.042.482.118.716.174.572.557 1.092 1.101 1.5l.118.086c.394.292.831.52 1.295.676a5 5 0 0 0 1.281.246l.062 1.866c-.68.26-.957.9-.621 1.428.335.528 1.157.744 1.835.483.678-.26.957-.9.622-1.428a1.27 1.27 0 0 0-.627-.485l-.064-1.924c.286-.049.567-.12.84-.213a4.725 4.725 0 0 0 1.527-.824l.085-.069c1.04-.848 1.445-2.055 1.07-3.191" fill="#FFF" fill-rule="nonzero"/>
  </g>
</svg>
